<?xml version="1.0" encoding="UTF-8" standalone="no"?>
<svg
   width="11.999733"
   height="15.749926"
   fill="currentColor"
   class="bi bi-balloon-heart-fill"
   viewBox="0 0 11.999733 15.749926"
   version="1.1"
   id="svg4"
   sodipodi:docname="balloon-heart-fill.svg"
   xmlns:inkscape="http://www.inkscape.org/namespaces/inkscape"
   xmlns:sodipodi="http://sodipodi.sourceforge.net/DTD/sodipodi-0.dtd"
   xmlns="http://www.w3.org/2000/svg"
   xmlns:svg="http://www.w3.org/2000/svg">
  <defs
     id="defs8" />
  <sodipodi:namedview
     id="namedview6"
     pagecolor="#ffffff"
     bordercolor="#000000"
     borderopacity="0.25"
     inkscape:showpageshadow="2"
     inkscape:pageopacity="0.0"
     inkscape:pagecheckerboard="0"
     inkscape:deskcolor="#d1d1d1"
     showgrid="false" />
  <path
     fill-rule="evenodd"
     d="m 6.4902179,10.919756 c 10.9220001,-7.5379999 2.79,-13.3069999 -0.49,-9.9339999 -3.281,-3.373 -11.413,2.396 -0.49,9.9339999 l -0.234,0.468 a 0.25043961,0.25043961 0 1 0 0.448,0.224 l 0.04,-0.08 c 0.009,0.17 0.024,0.315 0.051,0.45 0.068,0.344 0.208,0.622 0.448,1.102 l 0.013,0.028 c 0.212,0.422 0.182,0.85 0.05,1.246 -0.135,0.402 -0.366,0.751 -0.534,1.003 a 0.25016994,0.25016994 0 0 0 0.416,0.278 l 0.004,-0.007 c 0.166,-0.248 0.431,-0.646 0.588,-1.115 0.16,-0.479 0.212,-1.051 -0.076,-1.629 -0.258,-0.515 -0.365,-0.732 -0.419,-1.004 a 2.376,2.376 0 0 1 -0.037,-0.289 l 0.008,0.017 a 0.25043961,0.25043961 0 1 0 0.448,-0.224 l -0.235,-0.468 z m -1.764,-9.6509999 c -1.167,-0.61 -2.8,-0.142 -3.454,1.135 -0.237,0.463 -0.35999999,1.08 -0.202,1.85 0.055,0.27 0.467,0.197 0.527,-0.071 0.285,-1.256 1.177,-2.462 2.989,-2.528 0.234,-0.008 0.348,-0.278 0.14,-0.386 z"
     id="path2"
     style="fill:#3ba63b;fill-opacity:1"
     inkscape:export-filename="balloon-yellow.svg"
     inkscape:export-xdpi="96"
     inkscape:export-ydpi="96" />
</svg>
