<?xml version="1.0" encoding="UTF-8" standalone="no"?>
<svg
   width="10"
   height="15.75017"
   fill="currentColor"
   class="bi bi-balloon-fill"
   viewBox="0 0 10 15.75017"
   version="1.1"
   id="svg3175"
   sodipodi:docname="balloon-fill.svg"
   xmlns:inkscape="http://www.inkscape.org/namespaces/inkscape"
   xmlns:sodipodi="http://sodipodi.sourceforge.net/DTD/sodipodi-0.dtd"
   xmlns="http://www.w3.org/2000/svg"
   xmlns:svg="http://www.w3.org/2000/svg">
  <defs
     id="defs3179" />
  <sodipodi:namedview
     id="namedview3177"
     pagecolor="#ffffff"
     bordercolor="#000000"
     borderopacity="0.25"
     inkscape:showpageshadow="2"
     inkscape:pageopacity="0.0"
     inkscape:pagecheckerboard="0"
     inkscape:deskcolor="#d1d1d1"
     showgrid="false" />
  <path
     fill-rule="evenodd"
     d="M 5.48,10.901 C 8.211,10.227 10,7.837 10,5 A 5,5 0 0 0 0,5 c 0,2.837 1.789,5.227 4.52,5.901 l -0.244,0.487 a 0.25043961,0.25043961 0 1 0 0.448,0.224 l 0.04,-0.08 c 0.009,0.17 0.024,0.315 0.051,0.45 0.068,0.344 0.208,0.622 0.448,1.102 l 0.013,0.028 c 0.212,0.422 0.182,0.85 0.05,1.246 -0.135,0.402 -0.366,0.751 -0.534,1.003 a 0.25016994,0.25016994 0 0 0 0.416,0.278 L 5.212,15.632 C 5.378,15.384 5.643,14.986 5.8,14.517 5.96,14.038 6.012,13.466 5.724,12.888 5.466,12.373 5.359,12.156 5.305,11.884 A 2.376,2.376 0 0 1 5.268,11.595 l 0.008,0.017 A 0.25043961,0.25043961 0 1 0 5.724,11.388 Z M 1.352,3.356 A 4.004,4.004 0 0 1 4.502,1.031 C 4.774,0.997 5,1.224 5,1.5 5,1.776 4.774,1.996 4.502,2.042 3.552,2.204 2.753,2.822 2.329,3.659 A 0.595,0.595 0 0 1 1.809,4 C 1.463,4 1.21,3.671 1.352,3.356 Z"
     id="path3173"
     style="fill:#fde047;fill-opacity:1"
     inkscape:export-filename="balloon2-red.svg"
     inkscape:export-xdpi="96"
     inkscape:export-ydpi="96" />
</svg>
